<svg xmlns="http://www.w3.org/2000/svg" width="1280" height="720" viewBox="0 0 1280 720" font-family="Microsoft YaHei, PingFang SC, Noto Sans CJK SC, Arial, sans-serif" data-pptx-page-role="content">
  <rect id="bg" x="0" y="0" width="1280" height="720" fill="#F4F6F7"/>

  <g id="page-header" data-pptx-bounds="64 44 1152 110">
    <text x="64" y="70" font-size="24" fill="#0E8F86" font-weight="bold" letter-spacing="2">03 · 模型进展、工具与应用</text>
    <rect x="64" y="86" width="48" height="6" rx="3" fill="#E8743B"/>
    <text x="64" y="132" font-size="40" font-weight="bold" fill="#0B2C47">分子对接：从「猜得准」到「说得清」</text>
  </g>

  <g id="docking-diagram" data-pptx-bounds="64 172 620 388">
    <rect x="68" y="176" width="620" height="388" rx="16" fill="#E3E9ED"/>
    <rect x="64" y="172" width="620" height="388" rx="16" fill="#FFFFFF" stroke="#DDE6EC" stroke-width="1.5"/>
    <rect x="88" y="196" width="360" height="34" rx="17" fill="#E8EFF5"/>
    <text x="106" y="220" font-size="24" font-weight="bold" fill="#0B2C47">肽与受体结合口袋（VFD 域）示意</text>
    <path id="pocket" d="M210 286 Q168 370 228 452 Q380 492 520 446 Q584 356 504 268 Q360 228 210 286 Z" fill="#E8EFF5" stroke="#4F86B2" stroke-width="2.5"/>
    <text x="370" y="470" font-size="24" fill="#4F86B2" text-anchor="middle">受体结合口袋</text>
    <g id="docked-peptide">
      <line x1="322" y1="338" x2="372" y2="362" stroke="#C7D2DB" stroke-width="5"/>
      <line x1="372" y1="362" x2="422" y2="344" stroke="#C7D2DB" stroke-width="5"/>
      <line x1="422" y1="344" x2="462" y2="372" stroke="#C7D2DB" stroke-width="5"/>
      <circle cx="308" cy="330" r="20" fill="#E8743B"/>
      <circle cx="386" cy="368" r="20" fill="#0B2C47"/>
      <circle cx="436" cy="338" r="20" fill="#E8743B"/>
      <circle cx="478" cy="382" r="20" fill="#0E8F86"/>
      <text x="308" y="338" font-size="24" fill="#FFFFFF" text-anchor="middle" font-weight="bold">D</text>
    </g>
    <line x1="308" y1="310" x2="252" y2="282" stroke="#E8743B" stroke-width="2.5" stroke-dasharray="6,4"/>
    <circle cx="248" cy="278" r="7" fill="#E8743B"/>
    <text x="176" y="268" font-size="24" fill="#B5663A" font-weight="bold">Arg277</text>
    <text x="150" y="296" font-size="24" fill="#6B7C8A">关键盐桥</text>
    <line x1="478" y1="362" x2="524" y2="312" stroke="#0E8F86" stroke-width="2.5" stroke-dasharray="6,4"/>
    <circle cx="528" cy="306" r="7" fill="#0E8F86"/>
    <text x="540" y="302" font-size="24" fill="#0E8F86" font-weight="bold">氢键网络</text>
    <g id="dock-legend" font-size="24" fill="#273742">
      <rect x="88" y="512" width="16" height="16" rx="4" fill="#E8743B"/><text x="114" y="526">酸性残基 D</text>
      <rect x="312" y="512" width="16" height="16" rx="4" fill="#0E8F86"/><text x="338" y="526">协同残基</text>
      <rect x="470" y="512" width="16" height="16" rx="4" fill="#0B2C47"/><text x="496" y="526">其他残基</text>
      <text x="88" y="552" font-size="24" fill="#A3B2BF">示意图非真实构象；由 AutoDock 等工具打分</text>
    </g>
  </g>

  <g id="docking-points" data-pptx-bounds="708 172 508 388">
    <g id="dp-1">
      <rect x="712" y="176" width="508" height="116" rx="16" fill="#E3E9ED"/>
      <rect x="708" y="172" width="508" height="116" rx="16" fill="#FFFFFF" stroke="#E3E9ED" stroke-width="1.5"/>
      <circle cx="758" cy="222" r="26" fill="#E8EFF5"/>
      <use data-icon="tabler-outline/link" x="739" y="203" width="38" height="38" fill="#0B2C47" stroke-width="2"/>
      <text x="802" y="216" font-size="26" font-weight="bold" fill="#0B2C47">对接原理</text>
      <text x="732" y="256" font-size="24" fill="#273742">结构互补 + 能量匹配，搜索最优构象，</text>
      <text x="732" y="284" font-size="24" fill="#273742">以结合能 / 打分量化结合强度。</text>
    </g>
    <g id="dp-2">
      <rect x="712" y="304" width="508" height="116" rx="16" fill="#F0DECF"/>
      <rect x="708" y="300" width="508" height="116" rx="16" fill="#FBE9DD" stroke="#F0DECF" stroke-width="1.5"/>
      <circle cx="758" cy="350" r="26" fill="#F5D9C6"/>
      <use data-icon="tabler-outline/atom-2" x="739" y="331" width="38" height="38" fill="#E8743B" stroke-width="2"/>
      <text x="802" y="344" font-size="26" font-weight="bold" fill="#0B2C47">关键相互作用</text>
      <text x="732" y="384" font-size="24" fill="#273742">氢键 / 疏水 / 盐桥：DFEGDV 的 D 与</text>
      <text x="732" y="412" font-size="24" fill="#273742">Arg277 形成关键盐桥，给机制证据。</text>
    </g>
    <g id="dp-3">
      <rect x="708" y="432" width="508" height="128" rx="16" fill="#0B2C47"/>
      <circle cx="758" cy="482" r="26" fill="#123A5A"/>
      <use data-icon="tabler-outline/cpu" x="739" y="463" width="38" height="38" fill="#2FB3A8" stroke-width="2"/>
      <text x="802" y="476" font-size="26" font-weight="bold" fill="#FFFFFF">工具与局限</text>
      <text x="732" y="516" font-size="24" fill="#DCE8F2">AutoDock 经典对接；VmmScore 用 ML</text>
      <text x="732" y="544" font-size="24" fill="#2FB3A8" font-weight="bold">优化打分函数，成为提效方向。</text>
    </g>
  </g>

  <g id="conclude-band" data-pptx-bounds="64 584 1152 60">
    <rect x="64" y="584" width="1152" height="60" rx="16" fill="#0B2C47"/>
    <text x="100" y="622" font-size="26" fill="#FFFFFF" font-weight="bold">对接让预测从「模型觉得鲜」推进到「它<tspan fill="#2FB3A8">为什么能结合</tspan>受体」</text>
  </g>

  <g id="page-footer" data-pptx-bounds="1116 674 110 34">
    <text x="1216" y="700" font-size="24" fill="#A3B2BF" text-anchor="end">13 / 15</text>
  </g>
</svg>
